<svg xmlns="http://www.w3.org/2000/svg" viewBox="0 0 100 100" width="100" height="100">
  <!-- KC monogram — paper/off-white version for dark backgrounds. -->
  <defs>
    <filter id="kcRoughP" x="-25%" y="-25%" width="150%" height="150%">
      <feTurbulence type="fractalNoise" baseFrequency="0.045 0.055" numOctaves="2" seed="7" result="w"/>
      <feDisplacementMap in="SourceGraphic" in2="w" scale="2.4" xChannelSelector="R" yChannelSelector="G" result="d"/>
      <feTurbulence type="fractalNoise" baseFrequency="1.0" numOctaves="3" seed="4" result="g"/>
      <feColorMatrix in="g" type="matrix" values="0 0 0 0 0  0 0 0 0 0  0 0 0 0 0  0 0 0 -2 0.85" result="ga"/>
      <feComposite in="d" in2="ga" operator="out"/>
    </filter>
    <filter id="kcSmudgeP" x="-80%" y="-80%" width="260%" height="260%">
      <feTurbulence type="fractalNoise" baseFrequency="0.35" numOctaves="2" seed="2" result="n"/>
      <feDisplacementMap in="SourceGraphic" in2="n" scale="4"/>
    </filter>
  </defs>
  <g fill="none" stroke="#e8e4da" stroke-linecap="round" stroke-linejoin="round" filter="url(#kcRoughP)">
    <path d="M 27 15 C 25.5 34, 26.5 62, 24.5 85" stroke-width="7.5"/>
    <path d="M 30.5 19 C 28.5 38, 29.5 60, 27.5 81" stroke-width="3" opacity="0.45"/>
    <path d="M 54 17 C 46 28, 39 38, 27.5 50" stroke-width="7"/>
    <path d="M 30 47 C 39 58, 49 71, 57 85" stroke-width="7.5"/>
    <path d="M 33 51 C 41 61, 48 70, 54 80" stroke-width="3" opacity="0.4"/>
    <path d="M 86 27 C 75 12, 60 20, 58 40 C 56 55, 57 66, 62 77 C 68 90, 83 85, 88 71" stroke-width="7.5"/>
    <path d="M 83 22 C 70 11, 58 25, 56 43" stroke-width="3" opacity="0.45"/>
  </g>
  <circle cx="94" cy="82" r="2.6" fill="#e8e4da" filter="url(#kcSmudgeP)"/>
</svg>
